<mxfile host="app.diagrams.net" modified="2024-05-06T05:40:10.439Z" agent="Mozilla/5.0 (Macintosh; Intel Mac OS X 10.15; rv:109.0) Gecko/20100101 Firefox/115.0" etag="-buJOIbxNit-8Z8un3FL" version="24.3.0" type="github">
  <diagram name="Page-1" id="Unob22BMazIQGkOo5eu5">
    <mxGraphModel dx="1367" dy="674" grid="0" gridSize="10" guides="1" tooltips="1" connect="1" arrows="1" fold="1" page="0" pageScale="1" pageWidth="850" pageHeight="1100" math="0" shadow="0">
      <root>
        <mxCell id="0" />
        <mxCell id="1" parent="0" />
      </root>
    </mxGraphModel>
  </diagram>
</mxfile>
